<svg width="211" height="205" viewBox="0 0 211 205" fill="none" xmlns="http://www.w3.org/2000/svg">
<path d="M81.4294 40.506C92.2812 22.2446 118.719 22.2447 129.571 40.5061L171.727 111.446C182.818 130.111 169.367 153.75 147.656 153.75H63.344C41.6328 153.75 28.1821 130.11 39.2734 111.446L81.4294 40.506Z" fill="#ED1836"/>
<path d="M113.312 102.188H97.5L96.5 43H114.312L113.312 102.188ZM95.25 125.5C95.25 122.75 96.1458 120.458 97.9375 118.625C99.7292 116.792 102.208 115.875 105.375 115.875C108.458 115.875 110.917 116.792 112.75 118.625C114.583 120.458 115.5 122.75 115.5 125.5C115.5 128.167 114.583 130.417 112.75 132.25C110.917 134.042 108.458 134.938 105.375 134.938C102.208 134.938 99.7292 134.042 97.9375 132.25C96.1458 130.417 95.25 128.167 95.25 125.5Z" fill="white"/>
</svg>
